<svg data-v-423bf9ae="" xmlns="http://www.w3.org/2000/svg" viewBox="0 0 575 90" class="iconLeft"><!----><!----><!----><g data-v-423bf9ae="" id="b3af3e7e-174e-4007-98b1-3d059b2f849f" fill="black" transform="matrix(4.76947546005249,0,0,4.76947546005249,137.17515563964844,13.616851806640625)"><path d="M6.99 5.08L4.96 5.08C4.38 5.08 3.67 6.51 4.26 6.51L6.10 6.51L6.10 8.54C5.74 8.61 5.33 8.65 4.97 8.65C3.39 8.65 2.10 7.74 2.10 5.56C2.10 3.36 3.33 2.44 4.94 2.44C5.74 2.44 6.75 2.70 7.18 3.00C7.67 3.30 7.66 2.03 7.29 1.68C6.89 1.32 5.85 1.04 4.69 1.04C2.21 1.04 0.46 2.48 0.46 5.56C0.46 8.64 2.25 10.05 4.76 10.05C6.01 10.05 7.06 9.77 7.46 9.42C7.63 9.27 7.73 8.81 7.73 8.50L7.73 5.39C7.73 5.19 7.35 5.08 6.99 5.08ZM10.00 2.31C10.56 2.31 10.95 1.92 10.95 1.29C10.95 0.70 10.56 0.29 10.00 0.29C9.41 0.29 9.03 0.70 9.03 1.29C9.03 1.92 9.41 2.31 10.00 2.31ZM11.14 8.51C11.10 8.53 11.06 8.54 11.02 8.54C10.88 8.54 10.81 8.43 10.81 8.25L10.81 3.56C10.81 2.90 9.16 3.58 9.16 4.26L9.16 8.65C9.16 9.63 9.63 10.04 10.26 10.04C10.54 10.04 10.85 9.97 11.14 9.83C11.73 9.53 11.73 8.26 11.14 8.51ZM12.11 3.78C12.91 6.10 14.53 9.39 15.08 9.87C15.34 10.09 15.85 10.09 16.13 9.87C16.67 9.39 18.30 6.10 19.10 3.78C19.28 3.26 17.50 3.29 17.35 3.78C16.88 5.29 16.34 6.62 15.61 8.02C14.85 6.62 14.32 5.29 13.85 3.78C13.71 3.29 11.93 3.26 12.11 3.78ZM21.03 2.31C21.59 2.31 21.98 1.92 21.98 1.29C21.98 0.70 21.59 0.29 21.03 0.29C20.44 0.29 20.06 0.70 20.06 1.29C20.06 1.92 20.44 2.31 21.03 2.31ZM22.18 8.51C22.13 8.53 22.09 8.54 22.05 8.54C21.91 8.54 21.84 8.43 21.84 8.25L21.84 3.56C21.84 2.90 20.19 3.58 20.19 4.26L20.19 8.65C20.19 9.63 20.66 10.04 21.29 10.04C21.57 10.04 21.88 9.97 22.18 9.83C22.76 9.53 22.76 8.26 22.18 8.51ZM30.84 8.57C30.72 8.62 30.62 8.64 30.52 8.64C30.24 8.64 30.10 8.44 30.10 8.04L30.10 7.52L30.10 5.73C30.10 4.26 29.25 3.37 27.85 3.37C26.91 3.37 26.04 3.71 25.35 4.38L25.13 3.67C24.99 3.29 23.76 3.25 23.76 3.78L23.76 9.63C23.76 10.19 25.40 10.19 25.40 9.63L25.40 5.77C26.00 5.08 26.60 4.82 27.16 4.82C28.00 4.82 28.46 5.26 28.46 6.30L28.46 7.20L28.46 8.29C28.46 9.65 29.02 10.11 29.75 10.11C30.10 10.11 30.46 10.01 30.84 9.87C31.43 9.62 31.40 8.29 30.84 8.57ZM39.20 2.79C38.36 2.80 37.79 3.23 37.39 3.78C36.89 3.51 36.20 3.36 35.38 3.36C33.46 3.36 32.33 4.17 32.33 5.54C32.33 6.29 32.66 6.86 33.29 7.24C32.72 7.48 32.34 7.91 32.34 8.55C32.34 9.02 32.55 9.31 32.87 9.51C32.54 9.81 32.34 10.22 32.34 10.74C32.34 11.91 33.29 12.87 35.55 12.87C37.55 12.87 38.61 11.90 38.61 10.46C38.61 8.78 36.58 8.71 35.15 8.65C34.50 8.64 33.99 8.55 33.99 8.12C33.99 7.88 34.16 7.73 34.41 7.62C34.71 7.67 35.03 7.70 35.38 7.70C37.32 7.70 38.43 6.90 38.43 5.54C38.43 5.12 38.33 4.76 38.12 4.45C38.37 4.31 38.63 4.26 38.95 4.24C39.45 4.24 39.70 2.77 39.20 2.79ZM35.38 6.51C34.50 6.51 33.98 6.16 33.98 5.54C33.98 4.90 34.50 4.55 35.38 4.55C36.27 4.55 36.79 4.90 36.79 5.54C36.79 6.16 36.27 6.51 35.38 6.51ZM34.34 9.86C34.45 9.86 34.79 9.87 35.03 9.88C36.04 9.91 36.97 9.91 36.97 10.64C36.97 11.27 36.41 11.68 35.55 11.68C34.59 11.68 33.99 11.27 33.99 10.63C33.99 10.26 34.12 10.01 34.34 9.86ZM43.29 1.04C41.34 1.04 40.39 1.43 40.39 1.78L40.39 9.63C40.39 10.19 42.03 10.18 42.03 9.63L42.03 7.14C42.69 7.29 43.25 7.36 43.75 7.36C46.06 7.36 46.94 5.88 46.94 4.27C46.94 2.18 45.60 1.04 43.29 1.04ZM43.46 6.05C43.06 6.05 42.59 5.98 42.03 5.84L42.03 2.63C42.43 2.51 42.88 2.45 43.32 2.45C44.60 2.45 45.28 3.08 45.28 4.26C45.28 5.28 44.80 6.05 43.46 6.05ZM51.13 8.48C50.86 8.57 50.64 8.62 50.47 8.62C50.09 8.62 49.94 8.36 49.94 7.76L49.94 0.71C49.94 0.04 48.30 0.74 48.30 1.41L48.30 8.15C48.30 9.56 48.99 10.05 49.85 10.05C50.26 10.05 50.69 9.94 51.13 9.79C51.73 9.52 51.72 8.26 51.13 8.48ZM59.53 8.48C59.40 8.54 59.30 8.57 59.21 8.57C58.93 8.57 58.79 8.37 58.79 7.97L58.79 3.78C58.79 3.22 57.15 3.22 57.15 3.78L57.15 7.64C56.55 8.34 55.94 8.61 55.38 8.61C54.54 8.61 54.08 8.15 54.08 7.13L54.08 3.54C54.08 2.88 52.46 3.58 52.46 4.24L52.46 7.70C52.46 9.16 53.31 10.04 54.71 10.04C55.66 10.04 56.55 9.70 57.23 9.00C57.41 9.76 57.88 10.04 58.44 10.04C58.79 10.04 59.15 9.94 59.53 9.80C60.12 9.53 60.09 8.22 59.53 8.48ZM62.44 5.29C62.44 4.84 63.11 4.58 63.98 4.58C64.69 4.58 65.53 4.76 66.28 5.15C66.70 5.39 66.65 4.07 66.25 3.88C65.56 3.54 64.71 3.37 63.87 3.37C62.29 3.37 60.80 3.98 60.80 5.33C60.80 6.80 62.34 7 63.56 7.20C64.37 7.32 65.04 7.43 65.04 7.92C65.04 8.46 64.33 8.75 63.42 8.75C62.69 8.75 61.85 8.57 61.12 8.18C60.68 7.97 60.75 9.35 61.14 9.55C61.82 9.87 62.72 10.05 63.59 10.05C65.17 10.05 66.68 9.42 66.68 7.95C66.68 6.34 65.13 6.16 63.90 5.98C63.10 5.87 62.44 5.75 62.44 5.29ZM71.83 10.05C74.44 10.05 75.98 8.37 75.98 5.54C75.98 2.70 74.44 1.02 71.83 1.02C69.23 1.02 67.69 2.70 67.69 5.54C67.69 8.37 69.23 10.05 71.83 10.05ZM71.83 8.61C70.29 8.61 69.41 7.48 69.41 5.54C69.41 3.60 70.29 2.46 71.83 2.46C73.36 2.46 74.26 3.60 74.26 5.54C74.26 7.48 73.36 8.61 71.83 8.61ZM84.21 8.57C84.08 8.62 83.99 8.64 83.89 8.64C83.61 8.64 83.47 8.44 83.47 8.04L83.47 7.52L83.47 5.73C83.47 4.26 82.61 3.37 81.21 3.37C80.28 3.37 79.41 3.71 78.72 4.38L78.50 3.67C78.36 3.29 77.13 3.25 77.13 3.78L77.13 9.63C77.13 10.19 78.76 10.19 78.76 9.63L78.76 5.77C79.37 5.08 79.97 4.82 80.53 4.82C81.37 4.82 81.83 5.26 81.83 6.30L81.83 7.20L81.83 8.29C81.83 9.65 82.39 10.11 83.12 10.11C83.47 10.11 83.83 10.01 84.21 9.87C84.80 9.62 84.77 8.29 84.21 8.57ZM91.63 6.23C91.63 4.38 90.61 3.37 88.56 3.37C86.44 3.37 85.33 4.66 85.33 6.66C85.33 9.04 87.05 10.04 88.77 10.04C89.56 10.04 90.30 9.83 90.94 9.42C91.34 9.17 91.34 8.02 90.82 8.25C90.10 8.57 89.49 8.75 88.90 8.75C87.92 8.75 87.01 8.27 86.98 7.28C87.36 7.34 87.78 7.36 88.16 7.36C89.92 7.36 91.63 6.89 91.63 6.23ZM87.01 6.10C87.02 5.03 87.74 4.62 88.63 4.62C89.61 4.62 90.13 5.08 90.13 5.77C90.13 5.98 89.22 6.16 88.06 6.16C87.72 6.16 87.37 6.15 87.01 6.10Z"></path></g><!----><g data-v-423bf9ae="" id="ce48982a-681b-46af-b0d4-c59aba8242e5" transform="matrix(1.260857343673706,0,0,1.260857343673706,-2.379235029220581,-17.73287010192871)" stroke="none" fill="black"><path d="M39.932 14.31h3.607c.159.053.314.128.477.157 3.172.569 5.528 2.358 7.42 4.885-1.973 1.089-3.908 2.131-5.819 3.218-2.782 1.582-5.593 3.121-8.307 4.814-3.024 1.886-4.335 4.689-3.843 8.249.691 4.998 5.425 9.394 11.231 6.777 2.663-1.2 5.263-2.541 7.88-3.842 2.146-1.067 4.247-2.231 6.427-3.222.783-.356 1.746-.493 2.612-.448 1.742.091 3.103 1.12 4.259 2.312 1.81 1.866 3.599 3.766 5.235 5.782 2.933 3.613 5.723 7.343 8.621 10.985 1.284 1.614 1.891 3.383 1.67 5.432-.291 2.688-2.596 4.788-5.291 4.784-.726-.001-1.453-.117-2.181-.18.316 2.315-.094 4.396-2.098 5.814-1.931 1.366-4.051 1.277-6.23.396.134 2.369-.36 4.428-2.459 5.674-2.039 1.21-4.145 1.053-6.247-.162 0 .347.01.595-.002.843-.161 3.402-2.782 5.69-6.17 5.362-1.432-.139-2.671-.78-3.833-1.596-.475-.334-.706-.683-.665-1.35.212-3.468-1.438-5.993-4.44-6.888-.638-.19-1.314-.255-2.02-.387-.031-1.807-.433-3.506-1.721-4.885-1.302-1.394-2.966-1.962-4.828-2.064-.127-4.324-2.36-6.649-6.594-7.037l-.049-.893c-.161-3.009-2.204-5.351-5.158-5.889-2.574-.469-4.845.31-6.924 1.767-1.848 1.295-3.158 3.03-3.98 5.17l-.671-.243-7.178-2.607V21.527l.182-2.907c.712.236 1.394.452 2.068.688 3.321 1.165 6.615 2.416 9.971 3.466 1.35.423 2.84.59 4.259.554 1.959-.05 3.575-1.19 5.179-2.206 3.3-2.09 6.682-4.031 10.365-5.359 1.702-.616 3.494-.977 5.245-1.453z"></path><path d="M97.336 54.884c-1.597.481-3.185.992-4.792 1.438-2.962.823-5.785.515-8.237-1.421-1.005-.794-1.851-1.833-2.627-2.867-3.457-4.603-6.805-9.295-10.767-13.488-1.715-1.816-3.554-3.522-5.409-5.197-2.196-1.982-4.731-2.271-7.404-1.103-1.37.599-2.678 1.342-4.005 2.036-3.3 1.726-6.546 3.564-9.907 5.163-3.22 1.533-6.5.193-7.83-2.964-.906-2.151-.317-4.646 1.506-6.098a17.48 17.48 0 0 1 2.371-1.575c5.832-3.251 11.682-6.47 17.515-9.719 1.245-.693 2.456-1.45 3.664-2.206 4.008-2.507 8.068-2.253 12.124-.18 2.223 1.137 4.335 2.502 6.598 3.547 1.476.682 3.106 1.117 4.714 1.404 2.126.379 4.243-.082 6.29-.676 2.084-.604 4.131-1.336 6.195-2.012l.001 35.918zM35.424 85.69c-.64-.318-1.379-.522-1.902-.975-1.575-1.364-1.605-3.134-.988-4.953.268-.791.719-1.521 1.104-2.316-.292.151-.573.359-.888.448-1 .281-2.006.698-3.021.735-2.851.104-4.65-2.166-3.974-4.992.266-1.111.83-2.151 1.178-3.019-.767.273-1.717.75-2.721.944-3.552.684-5.892-1.862-4.926-5.348.26-.939.768-1.809 1.075-2.511-.979.285-2.113.801-3.288.923-3.182.33-5.162-2.063-4.423-5.186.767-3.239 3.764-5.844 7.075-6.15 3.064-.282 5.08 2.31 4.193 5.485-.261.936-.77 1.802-1.128 2.616.76-.291 1.588-.709 2.465-.922 1.665-.405 3.268-.251 4.477 1.139 1.196 1.375 1.172 2.983.612 4.596-.276.794-.726 1.527-1.121 2.335.203-.107.423-.217.637-.335 1.138-.631 2.344-1.004 3.657-.884 2.674.246 4.233 2.303 3.622 4.939-.264 1.137-.833 2.203-1.183 3.097.731-.265 1.655-.725 2.632-.931 3.594-.757 6.038 1.882 4.984 5.404-.895 2.99-2.962 4.848-5.948 5.702-.136.039-.265.105-.397.159h-1.803z"></path></g><!----></svg>